<svg id="Layer_1" data-name="Layer 1" xmlns="http://www.w3.org/2000/svg" viewBox="0 0 174 174"><defs><style>.cls-1{fill:#fff;}</style></defs><path class="cls-1" d="M968,461a87,87,0,1,0,87,87A87,87,0,0,0,968,461Zm39,64-34.8,27.84-.15.1-.26.18-.38.2-.27.12a3.53,3.53,0,0,1-.46.15l-.24.06a4.53,4.53,0,0,1-.74.07h0a3.86,3.86,0,0,1-.84-.09l-.2-.06a3.42,3.42,0,0,1-.59-.21l-.26-.14a3.24,3.24,0,0,1-.47-.28l-.24-.21a4.89,4.89,0,0,1-.4-.39l-.12-.12a1,1,0,0,1-.09-.13c-.08-.12-.16-.24-.23-.36s-.12-.21-.17-.32a2.87,2.87,0,0,1-.15-.37c0-.13-.09-.25-.12-.38s0-.24-.06-.36a3,3,0,0,1,0-.43.77.77,0,0,1,0-.15v-69.6a4,4,0,0,1,8,0v61.28l28.3-22.64a4,4,0,0,1,5,6.24Z" transform="translate(-881 -461)"/></svg>