<svg id="Layer_1" data-name="Layer 1" xmlns="http://www.w3.org/2000/svg" viewBox="0 0 376.19 235"><defs><style>.cls-1{fill:none;stroke:#231f20;stroke-miterlimit:10;stroke-width:22px;}.cls-2{fill:#0d3b5d;}</style></defs><path class="cls-1" d="M489.44,361.29" transform="translate(-1031 -364.5)"/><path class="cls-1" d="M716.5,525" transform="translate(-1031 -364.5)"/><path class="cls-2" d="M1219,498.85l173.45-132.6a23.75,23.75,0,0,0-9-1.75H1054.69a23.56,23.56,0,0,0-9,1.76Z" transform="translate(-1031 -364.5)"/><path class="cls-2" d="M1401.84,590.8a23.55,23.55,0,0,0,5.35-15V388.19a23.61,23.61,0,0,0-2-9.41L1266.91,484.52Z" transform="translate(-1031 -364.5)"/><path class="cls-2" d="M1258.71,490.79,1224.38,517a8.86,8.86,0,0,1-10.76,0l-31.3-23.95L1042,595.8a23.59,23.59,0,0,0,12.71,3.7H1383.5a23.7,23.7,0,0,0,10.27-2.33Z" transform="translate(-1031 -364.5)"/><path class="cls-2" d="M1033,378.78a23.61,23.61,0,0,0-2,9.41V575.81a23.53,23.53,0,0,0,3.8,12.85L1174,486.75Z" transform="translate(-1031 -364.5)"/></svg>