<svg id="Layer_1" data-name="Layer 1" xmlns="http://www.w3.org/2000/svg" viewBox="0 0 212.37 306.49"><defs><style>.cls-1{fill:#fff;}</style></defs><path class="cls-1" d="M330.8,238.16H177a29.28,29.28,0,0,0-29.28,29.28V413A29.28,29.28,0,0,0,177,442.29H330.8A29.27,29.27,0,0,0,360.07,413V267.44A29.27,29.27,0,0,0,330.8,238.16ZM264.17,348.42v23.8a2,2,0,0,1-2,2H245.61a2,2,0,0,1-2-2v-23.8a20.14,20.14,0,1,1,20.56,0Z" transform="translate(-147.7 -135.8)"/><rect class="cls-1" x="43.64" y="65.72" width="19.75" height="36.65"/><rect class="cls-1" x="150.39" y="65.72" width="19.75" height="36.65"/><path class="cls-1" d="M253.89,150.17c24.84,0,42.44,33.87,44.07,55.89h19.88c0-38.8-28.33-70.26-63.28-70.26s-63.28,31.46-63.28,70.26h19.81C211.09,184.31,227.79,150.17,253.89,150.17Z" transform="translate(-147.7 -135.8)"/></svg>