<svg id="Layer_1" data-name="Layer 1" xmlns="http://www.w3.org/2000/svg" viewBox="0 0 314.1 595.26"><defs><style>.cls-1{fill:#0d3b5d;}</style></defs><g id="Quill_Ink" data-name="Quill Ink"><rect id="Rectangle_16" data-name="Rectangle 16" class="cls-1" x="53.75" y="418.43" width="99.42" height="22.61" rx="11.3"/><path id="Path_7" data-name="Path 7" class="cls-1" d="M818,765H741.12V610.78H818Z" transform="translate(-676.13 -169.74)"/><path id="Path_8" data-name="Path 8" class="cls-1" d="M698.18,652.05l43-14.13V765H692.5s-16.37-2.17-16.37-22.51l5.65-65S683.56,656.84,698.18,652.05Z" transform="translate(-676.13 -169.74)"/><path id="Path_9" data-name="Path 9" class="cls-1" d="M857.19,652.05l-43-14.13V765h48.6s16.4-2.17,16.4-22.51l-5.65-65S871.85,656.84,857.19,652.05Z" transform="translate(-676.13 -169.74)"/><path id="Path_10" data-name="Path 10" class="cls-1" d="M853.58,218.71s-44.91,44-49.76,70.49c0,0,.9,53.42,7.18,61.29a66.39,66.39,0,0,1-20.67-40.61S755.1,347.72,754,442c0,0,17.92,25.35,27.32,32,0,0-21.08-5.51-29.06-15.23,0,0-12.53,10.51,23.77,94.6l-20.77,96,3.5-3.78s19.46-78.06,26.49-85.27,54.2-43.12,65-73.26c0,0-22,6.46-30.49,4.71,0,0,34-12.1,41.68-24.17,0,0,38.24-53.26,43.5-87.69,0,0-32.28,14-40.84,7.3,0,0,48.24-21.63,53.27-33.82,0,0,25.67-41.88,26.4-74.76,0,0-20.94,9.64-32.5.62,0,0,18.12-15.56,35.08-16.54,0,0,7.56-67.89,43.87-86.37,0,0-31.37-26.68-120.37,27.57,0,0,3.42,47.76-4.45,54C865.42,258,844.88,232.52,853.58,218.71Zm122.93-39.27c-141.4,79.72-193.43,375.14-193.43,375.14C817.36,235.83,976.51,179.44,976.51,179.44Z" transform="translate(-676.13 -169.74)"/></g></svg>
