<svg id="Layer_1" data-name="Layer 1" xmlns="http://www.w3.org/2000/svg" viewBox="0 0 114.54 180"><defs><style>.cls-1{fill:#fff;}</style></defs><path class="cls-1" d="M1021.27,458H914.73a4,4,0,0,0-4,4V634a4,4,0,0,0,4,4h106.54a4,4,0,0,0,4-4V462A4,4,0,0,0,1021.27,458ZM968,634.73a8.17,8.17,0,0,1-8.16-7.8c0-.13,0-.25,0-.38s0-.32,0-.47a8.18,8.18,0,0,1,16.3-.37,8.74,8.74,0,0,1,0,1.67A8.18,8.18,0,0,1,968,634.73Zm50.73-23.64a4,4,0,0,1-4,4H921.27a4,4,0,0,1-4-4V468.54a4,4,0,0,1,4-4h93.46a4,4,0,0,1,4,4Z" transform="translate(-910.73 -458)"/></svg>